<svg width="186" height="64" viewBox="0 0 186 64" fill="none" xmlns="http://www.w3.org/2000/svg">
<path d="M74.2817 46.3503L85.3048 16.4429H89.1073L100.088 46.3503H96.2851L93.5507 38.6599H80.8187L78.0415 46.3503H74.2817ZM81.8868 35.7546H92.4825L87.1847 20.9718L81.8868 35.7546ZM104.32 46.3503V25.1588H107.567L107.866 29.2177C108.521 27.822 109.518 26.7111 110.857 25.8851C112.196 25.0591 113.848 24.6461 115.813 24.6461V28.4059H114.83C113.577 28.4059 112.423 28.6338 111.37 29.0895C110.316 29.5167 109.475 30.2573 108.849 31.3112C108.222 32.3651 107.909 33.8177 107.909 35.6691V46.3503H104.32ZM127.715 39.6853C126.518 39.6853 125.422 39.5286 124.425 39.2153L122.288 41.2234C122.602 41.4512 122.986 41.6506 123.442 41.8215C123.926 41.9639 124.61 42.1063 125.493 42.2488C126.376 42.3627 127.615 42.4909 129.21 42.6333C132.058 42.8327 134.095 43.4878 135.32 44.5986C136.544 45.7095 137.157 47.1621 137.157 48.9566C137.157 50.1813 136.815 51.3492 136.131 52.46C135.476 53.5708 134.451 54.4823 133.055 55.1944C131.688 55.9065 129.922 56.2625 127.757 56.2625C125.849 56.2625 124.154 56.0062 122.673 55.4935C121.192 55.0093 120.038 54.2544 119.212 53.229C118.386 52.2321 117.973 50.9646 117.973 49.4265C117.973 48.629 118.187 47.7603 118.614 46.8203C119.041 45.9089 119.839 45.0401 121.007 44.2141C120.38 43.9577 119.839 43.6872 119.383 43.4023C118.956 43.089 118.557 42.7472 118.187 42.3769V41.3943L121.819 37.8054C120.138 36.3812 119.298 34.5013 119.298 32.1657C119.298 30.77 119.625 29.5025 120.28 28.3632C120.936 27.2238 121.89 26.3266 123.143 25.6715C124.396 24.9879 125.92 24.6461 127.715 24.6461C128.939 24.6461 130.05 24.817 131.047 25.1588H138.866V27.8505L134.892 28.0214C135.718 29.2177 136.131 30.5991 136.131 32.1657C136.131 33.5614 135.79 34.8289 135.106 35.9682C134.451 37.1075 133.497 38.019 132.243 38.7026C131.019 39.3577 129.509 39.6853 127.715 39.6853ZM127.715 36.7372C129.224 36.7372 130.42 36.3527 131.303 35.5837C132.215 34.7861 132.671 33.6468 132.671 32.1657C132.671 30.713 132.215 29.6022 131.303 28.8331C130.42 28.0356 129.224 27.6368 127.715 27.6368C126.176 27.6368 124.952 28.0356 124.04 28.8331C123.157 29.6022 122.716 30.713 122.716 32.1657C122.716 33.6468 123.157 34.7861 124.04 35.5837C124.952 36.3527 126.176 36.7372 127.715 36.7372ZM121.477 49.0847C121.477 50.5089 122.075 51.5628 123.271 52.2464C124.467 52.9585 125.963 53.3145 127.757 53.3145C129.523 53.3145 130.933 52.93 131.987 52.1609C133.069 51.3919 133.611 50.3665 133.611 49.0847C133.611 48.1733 133.24 47.3757 132.5 46.6921C131.759 46.037 130.392 45.6525 128.398 45.5386C126.832 45.4246 125.479 45.2822 124.339 45.1113C123.171 45.738 122.402 46.4073 122.032 47.1194C121.662 47.86 121.477 48.5151 121.477 49.0847ZM151.736 46.863C149.742 46.863 147.947 46.4073 146.352 45.4958C144.757 44.5844 143.49 43.3026 142.55 41.6506C141.638 39.9701 141.183 38.0047 141.183 35.7546C141.183 33.5044 141.653 31.5533 142.592 29.9013C143.532 28.2208 144.8 26.9248 146.395 26.0133C148.019 25.1018 149.827 24.6461 151.821 24.6461C153.815 24.6461 155.609 25.1018 157.204 26.0133C158.799 26.9248 160.053 28.2208 160.964 29.9013C161.904 31.5533 162.374 33.5044 162.374 35.7546C162.374 38.0047 161.904 39.9701 160.964 41.6506C160.024 43.3026 158.742 44.5844 157.119 45.4958C155.524 46.4073 153.729 46.863 151.736 46.863ZM151.736 43.7868C152.96 43.7868 154.1 43.4878 155.154 42.8896C156.207 42.2915 157.062 41.3943 157.717 40.198C158.372 39.0017 158.7 37.5205 158.7 35.7546C158.7 33.9886 158.372 32.5075 157.717 31.3112C157.09 30.1149 156.25 29.2177 155.196 28.6195C154.142 28.0214 153.017 27.7223 151.821 27.7223C150.596 27.7223 149.457 28.0214 148.403 28.6195C147.349 29.2177 146.495 30.1149 145.84 31.3112C145.184 32.5075 144.857 33.9886 144.857 35.7546C144.857 37.5205 145.184 39.0017 145.84 40.198C146.495 41.3943 147.335 42.2915 148.36 42.8896C149.414 43.4878 150.539 43.7868 151.736 43.7868ZM175.482 46.863C172.947 46.863 170.839 46.2222 169.159 44.9404C167.478 43.6587 166.495 41.9212 166.211 39.728H169.885C170.113 40.8388 170.697 41.8073 171.637 42.6333C172.605 43.4308 173.901 43.8296 175.525 43.8296C177.034 43.8296 178.145 43.5163 178.857 42.8896C179.569 42.2345 179.925 41.4655 179.925 40.5825C179.925 39.3007 179.455 38.4462 178.515 38.019C177.604 37.5917 176.308 37.2072 174.627 36.8654C173.488 36.6376 172.349 36.31 171.209 35.8827C170.07 35.4555 169.116 34.8573 168.347 34.0883C167.578 33.2908 167.193 32.2511 167.193 30.9694C167.193 29.118 167.877 27.6084 169.244 26.4405C170.64 25.2443 172.52 24.6461 174.884 24.6461C177.134 24.6461 178.971 25.2158 180.395 26.3551C181.848 27.4659 182.688 29.061 182.916 31.1403H179.37C179.228 30.0579 178.758 29.2177 177.96 28.6195C177.191 27.9929 176.151 27.6796 174.841 27.6796C173.559 27.6796 172.562 27.9502 171.85 28.4913C171.167 29.0325 170.825 29.7446 170.825 30.6276C170.825 31.4821 171.266 32.1514 172.149 32.6357C173.061 33.1199 174.286 33.5329 175.824 33.8747C177.134 34.1595 178.373 34.5156 179.541 34.9428C180.737 35.3416 181.706 35.954 182.446 36.78C183.215 37.5775 183.6 38.7453 183.6 40.2834C183.628 42.1918 182.902 43.7726 181.421 45.0259C179.968 46.2507 177.988 46.863 175.482 46.863Z" fill="black"/>
<rect x="9" y="8" width="18" height="40" rx="9" fill="white"/>
<rect x="32" y="15" width="7" height="29" rx="3.5" fill="white"/>
<rect x="44" y="21" width="4" height="19" rx="2" fill="white"/>
<rect x="9" y="8" width="18" height="40" rx="9" fill="white"/>
<rect x="32" y="15" width="7" height="29" rx="3.5" fill="white"/>
<rect x="44" y="21" width="4" height="19" rx="2" fill="white"/>
<rect x="9" y="8" width="18" height="40" rx="9" fill="white"/>
<rect x="32" y="15" width="7" height="29" rx="3.5" fill="white"/>
<rect x="44" y="21" width="4" height="19" rx="2" fill="white"/>
<mask id="mask0_712_3657" style="mask-type:alpha" maskUnits="userSpaceOnUse" x="0" y="0" width="58" height="64">
<path d="M23.7952 1.65248C27.1694 -0.295617 31.3266 -0.29562 34.7009 1.65248L52.5472 11.9561C55.9214 13.9042 58 17.5044 58 21.4006V42.0078C58 45.904 55.9214 49.5042 52.5472 51.4523L34.7009 61.7559C31.3266 63.704 27.1695 63.704 23.7952 61.7559L5.9489 51.4523C2.5747 49.5042 0.496094 45.904 0.496094 42.0078V21.4006C0.496094 17.5044 2.57469 13.9042 5.9489 11.9561L23.7952 1.65248Z" fill="#C4C4C4"/>
</mask>
<g mask="url(#mask0_712_3657)">
<rect width="36.3919" height="36.3919" transform="matrix(0.866025 0.5 -0.866025 0.5 29.2485 -2.03687)" fill="#005EA3"/>
<rect width="33.4856" height="33.4856" transform="matrix(0.866025 0.5 -2.20305e-08 1 0.248047 16.4224)" fill="#2FB4FF"/>
<rect width="33.4856" height="33.4856" transform="matrix(0.866025 -0.5 2.20305e-08 1 29.2485 33.1694)" fill="#2F80ED"/>
</g>
</svg>
